<svg width="26" height="28" viewBox="0 0 26 28" fill="none" xmlns="http://www.w3.org/2000/svg">
<path d="M25.75 14C25.75 13.2707 25.4603 12.5712 24.9445 12.0555C24.4288 11.5397 23.7293 11.25 23 11.25H13.75V9.67501C14.5965 9.50103 15.3571 9.04049 15.9036 8.37104C16.4501 7.7016 16.749 6.86419 16.75 6.00001C16.75 2.63751 13.5525 0.466264 13.4163 0.375014C13.293 0.292784 13.1482 0.248901 13 0.248901C12.8518 0.248901 12.707 0.292784 12.5837 0.375014C12.4475 0.466264 9.25 2.63751 9.25 6.00001C9.251 6.86419 9.54994 7.7016 10.0964 8.37104C10.6429 9.04049 11.4035 9.50103 12.25 9.67501V11.25H3C2.27065 11.25 1.57118 11.5397 1.05546 12.0555C0.539731 12.5712 0.25 13.2707 0.25 14V16.9163C0.250824 17.9815 0.602238 19.0169 1.25 19.8625V25C1.25 25.7294 1.53973 26.4288 2.05546 26.9446C2.57118 27.4603 3.27065 27.75 4 27.75H22C22.7293 27.75 23.4288 27.4603 23.9445 26.9446C24.4603 26.4288 24.75 25.7294 24.75 25V19.8625C25.3978 19.0169 25.7492 17.9815 25.75 16.9163V14ZM10.75 6.00001C10.75 4.07501 12.25 2.57376 13 1.94501C13.75 2.57001 15.25 4.07001 15.25 6.00001C15.25 6.59675 15.0129 7.16905 14.591 7.591C14.169 8.01296 13.5967 8.25001 13 8.25001C12.4033 8.25001 11.831 8.01296 11.409 7.591C10.9871 7.16905 10.75 6.59675 10.75 6.00001ZM1.75 14C1.75 13.6685 1.8817 13.3506 2.11612 13.1161C2.35054 12.8817 2.66848 12.75 3 12.75H23C23.3315 12.75 23.6495 12.8817 23.8839 13.1161C24.1183 13.3506 24.25 13.6685 24.25 14V16.9163C24.25 18.7063 22.8338 20.2013 21.0925 20.2488C20.6581 20.2611 20.2256 20.1863 19.8206 20.0285C19.4157 19.8708 19.0465 19.6335 18.7348 19.3306C18.4232 19.0277 18.1755 18.6654 18.0063 18.2651C17.8371 17.8648 17.75 17.4346 17.75 17C17.75 16.8011 17.671 16.6103 17.5303 16.4697C17.3897 16.329 17.1989 16.25 17 16.25C16.8011 16.25 16.6103 16.329 16.4697 16.4697C16.329 16.6103 16.25 16.8011 16.25 17C16.25 17.862 15.9076 18.6886 15.2981 19.2981C14.6886 19.9076 13.862 20.25 13 20.25C12.138 20.25 11.3114 19.9076 10.7019 19.2981C10.0924 18.6886 9.75 17.862 9.75 17C9.75 16.8011 9.67098 16.6103 9.53033 16.4697C9.38968 16.329 9.19891 16.25 9 16.25C8.80109 16.25 8.61032 16.329 8.46967 16.4697C8.32902 16.6103 8.25 16.8011 8.25 17C8.25018 17.4347 8.16315 17.865 7.99407 18.2655C7.82498 18.6659 7.57729 19.0284 7.26563 19.3314C6.95397 19.6345 6.58469 19.8719 6.17965 20.0297C5.7746 20.1875 5.34202 20.2624 4.9075 20.25C3.16625 20.2013 1.75 18.7063 1.75 16.9163V14ZM22 26.25H4C3.66848 26.25 3.35054 26.1183 3.11612 25.8839C2.8817 25.6495 2.75 25.3315 2.75 25V21.1638C3.39812 21.5274 4.12467 21.7285 4.8675 21.75C5.50264 21.7689 6.13507 21.6595 6.72698 21.4284C7.31889 21.1973 7.85814 20.8492 8.3125 20.405C8.5725 20.1508 8.80311 19.8682 9 19.5625C9.4297 20.2335 10.0213 20.7856 10.7203 21.168C11.4193 21.5504 12.2032 21.7508 13 21.7508C13.7968 21.7508 14.5807 21.5504 15.2797 21.168C15.9787 20.7856 16.5703 20.2335 17 19.5625C17.1977 19.8683 17.4291 20.151 17.69 20.405C18.5742 21.2701 19.763 21.7531 21 21.75H21.1338C21.8762 21.7283 22.6023 21.5272 23.25 21.1638V25C23.25 25.3315 23.1183 25.6495 22.8839 25.8839C22.6495 26.1183 22.3315 26.25 22 26.25Z" fill="#22C1C1"/>
</svg>
