<svg width="26" height="25" viewBox="0 0 26 25" fill="none" xmlns="http://www.w3.org/2000/svg">
<path d="M25 10.25H23.7213C23.5228 7.54219 22.3071 5.00976 20.3183 3.1614C18.3296 1.31305 15.7151 0.285683 13 0.285683C10.2849 0.285683 7.67042 1.31305 5.68165 3.1614C3.69289 5.00976 2.47719 7.54219 2.27875 10.25H1C0.801088 10.25 0.610322 10.329 0.46967 10.4697C0.329018 10.6103 0.25 10.8011 0.25 11C0.25446 13.3581 0.910563 15.6691 2.14585 17.6778C3.38114 19.6864 5.14755 21.3146 7.25 22.3825V23C7.25 23.4641 7.43437 23.9092 7.76256 24.2374C8.09075 24.5656 8.53587 24.75 9 24.75H17C17.4641 24.75 17.9092 24.5656 18.2374 24.2374C18.5656 23.9092 18.75 23.4641 18.75 23V22.3825C20.8525 21.3146 22.6189 19.6864 23.8541 17.6778C25.0894 15.6691 25.7455 13.3581 25.75 11C25.75 10.8011 25.671 10.6103 25.5303 10.4697C25.3897 10.329 25.1989 10.25 25 10.25ZM18.78 3.78625C19.1429 4.07691 19.4835 4.39448 19.7987 4.73625C18.4066 5.16958 17.1172 5.88195 16.0094 6.82991C14.9015 7.77787 13.9984 8.94155 13.355 10.25H9.1675C9.75819 8.36872 10.9328 6.7245 12.5209 5.55576C14.109 4.38702 16.0282 3.75453 18 3.75C18.26 3.75 18.5212 3.76375 18.78 3.78625ZM20.7875 6.0175C21.6052 7.28916 22.0964 8.74299 22.2175 10.25H15.06C15.6871 9.20057 16.5162 8.28607 17.4994 7.55953C18.4826 6.83298 19.6002 6.30884 20.7875 6.0175ZM13 1.75C14.1458 1.74813 15.2819 1.96009 16.35 2.375C14.2869 2.70066 12.3627 3.61809 10.8109 5.01596C9.25901 6.41383 8.14621 8.23205 7.6075 10.25H3.7825C3.97339 7.93554 5.02684 5.77726 6.73407 4.20293C8.44129 2.62859 10.6777 1.75311 13 1.75ZM17.6875 21.23C17.5568 21.2899 17.4462 21.386 17.3686 21.507C17.291 21.628 17.2499 21.7688 17.25 21.9125V23C17.25 23.0663 17.2237 23.1299 17.1768 23.1768C17.1299 23.2237 17.0663 23.25 17 23.25H9C8.9337 23.25 8.87011 23.2237 8.82322 23.1768C8.77634 23.1299 8.75 23.0663 8.75 23V21.9125C8.75014 21.7688 8.70897 21.628 8.63141 21.507C8.55385 21.386 8.44315 21.2899 8.3125 21.23C6.47265 20.3815 4.89493 19.0537 3.74472 17.3858C2.59451 15.7179 1.91416 13.7713 1.775 11.75H24.225C24.0858 13.7713 23.4055 15.7179 22.2553 17.3858C21.1051 19.0537 19.5273 20.3815 17.6875 21.23Z" fill="#F21E84"/>
</svg>
