<svg width="20" height="27" viewBox="0 0 20 27" fill="none" xmlns="http://www.w3.org/2000/svg">
<path d="M19 0.25H14C13.8011 0.25 13.6103 0.329018 13.4697 0.46967C13.329 0.610322 13.25 0.801088 13.25 1C13.25 1.19891 13.329 1.38968 13.4697 1.53033C13.6103 1.67098 13.8011 1.75 14 1.75H17.19L13.44 5.4925C12.5579 4.61835 11.4786 3.969 10.2931 3.59913C9.10752 3.22925 7.85047 3.1497 6.62777 3.36716C5.40508 3.58463 4.25254 4.09274 3.26725 4.84871C2.28196 5.60467 1.49277 6.58635 0.966155 7.71105C0.439536 8.83575 0.190913 10.0705 0.241227 11.3114C0.291541 12.5523 0.639318 13.7629 1.25527 14.8412C1.87121 15.9196 2.73729 16.8342 3.78055 17.5079C4.82381 18.1816 6.0137 18.5947 7.24999 18.7125V21.25H3.99999C3.80107 21.25 3.61031 21.329 3.46966 21.4697C3.329 21.6103 3.24999 21.8011 3.24999 22C3.24999 22.1989 3.329 22.3897 3.46966 22.5303C3.61031 22.671 3.80107 22.75 3.99999 22.75H7.24999V26C7.24999 26.1989 7.329 26.3897 7.46966 26.5303C7.61031 26.671 7.80107 26.75 7.99999 26.75C8.1989 26.75 8.38966 26.671 8.53032 26.5303C8.67097 26.3897 8.74999 26.1989 8.74999 26V22.75H12C12.1989 22.75 12.3897 22.671 12.5303 22.5303C12.671 22.3897 12.75 22.1989 12.75 22C12.75 21.8011 12.671 21.6103 12.5303 21.4697C12.3897 21.329 12.1989 21.25 12 21.25H8.74999V18.7125C10.0874 18.5817 11.3678 18.1053 12.4656 17.3302C13.5633 16.5551 14.4407 15.5079 15.0115 14.2914C15.5823 13.0749 15.827 11.7308 15.7216 10.3911C15.6161 9.05146 15.1641 7.76224 14.41 6.65L18.25 2.81V6C18.25 6.19891 18.329 6.38968 18.4697 6.53033C18.6103 6.67098 18.8011 6.75 19 6.75C19.1989 6.75 19.3897 6.67098 19.5303 6.53033C19.671 6.38968 19.75 6.19891 19.75 6V1C19.75 0.801088 19.671 0.610322 19.5303 0.46967C19.3897 0.329018 19.1989 0.25 19 0.25ZM7.99999 17.25C6.76385 17.25 5.55548 16.8834 4.52767 16.1967C3.49986 15.5099 2.69879 14.5338 2.22574 13.3918C1.75269 12.2497 1.62892 10.9931 1.87008 9.78069C2.11124 8.5683 2.70649 7.45466 3.58057 6.58058C4.45465 5.7065 5.56829 5.11125 6.78067 4.87009C7.99305 4.62893 9.24972 4.75271 10.3918 5.22575C11.5338 5.6988 12.5099 6.49988 13.1967 7.52769C13.8834 8.55549 14.25 9.76387 14.25 11C14.248 12.657 13.5889 14.2456 12.4172 15.4172C11.2455 16.5889 9.65698 17.248 7.99999 17.25Z" fill="#F24E1E"/>
</svg>
