<svg width="32" height="20" viewBox="0 0 32 20" fill="none" xmlns="http://www.w3.org/2000/svg">
<path d="M31 9.25H29.75V5C29.75 4.53587 29.5656 4.09075 29.2374 3.76256C28.9092 3.43437 28.4641 3.25 28 3.25H25.75V2C25.75 1.53587 25.5656 1.09075 25.2374 0.762563C24.9092 0.434375 24.4641 0.25 24 0.25H21C20.5359 0.25 20.0908 0.434375 19.7626 0.762563C19.4344 1.09075 19.25 1.53587 19.25 2V9.25H12.75V2C12.75 1.53587 12.5656 1.09075 12.2374 0.762563C11.9092 0.434375 11.4641 0.25 11 0.25H8C7.53587 0.25 7.09075 0.434375 6.76256 0.762563C6.43437 1.09075 6.25 1.53587 6.25 2V3.25H4C3.53587 3.25 3.09075 3.43437 2.76256 3.76256C2.43437 4.09075 2.25 4.53587 2.25 5V9.25H1C0.801088 9.25 0.610322 9.32902 0.46967 9.46967C0.329018 9.61032 0.25 9.80109 0.25 10C0.25 10.1989 0.329018 10.3897 0.46967 10.5303C0.610322 10.671 0.801088 10.75 1 10.75H2.25V15C2.25 15.4641 2.43437 15.9092 2.76256 16.2374C3.09075 16.5656 3.53587 16.75 4 16.75H6.25V18C6.25 18.4641 6.43437 18.9092 6.76256 19.2374C7.09075 19.5656 7.53587 19.75 8 19.75H11C11.4641 19.75 11.9092 19.5656 12.2374 19.2374C12.5656 18.9092 12.75 18.4641 12.75 18V10.75H19.25V18C19.25 18.4641 19.4344 18.9092 19.7626 19.2374C20.0908 19.5656 20.5359 19.75 21 19.75H24C24.4641 19.75 24.9092 19.5656 25.2374 19.2374C25.5656 18.9092 25.75 18.4641 25.75 18V16.75H28C28.4641 16.75 28.9092 16.5656 29.2374 16.2374C29.5656 15.9092 29.75 15.4641 29.75 15V10.75H31C31.1989 10.75 31.3897 10.671 31.5303 10.5303C31.671 10.3897 31.75 10.1989 31.75 10C31.75 9.80109 31.671 9.61032 31.5303 9.46967C31.3897 9.32902 31.1989 9.25 31 9.25ZM4 15.25C3.9337 15.25 3.87011 15.2237 3.82322 15.1768C3.77634 15.1299 3.75 15.0663 3.75 15V5C3.75 4.9337 3.77634 4.87011 3.82322 4.82322C3.87011 4.77634 3.9337 4.75 4 4.75H6.25V15.25H4ZM11.25 18C11.25 18.0663 11.2237 18.1299 11.1768 18.1768C11.1299 18.2237 11.0663 18.25 11 18.25H8C7.9337 18.25 7.87011 18.2237 7.82322 18.1768C7.77634 18.1299 7.75 18.0663 7.75 18V2C7.75 1.9337 7.77634 1.87011 7.82322 1.82322C7.87011 1.77634 7.9337 1.75 8 1.75H11C11.0663 1.75 11.1299 1.77634 11.1768 1.82322C11.2237 1.87011 11.25 1.9337 11.25 2V18ZM24.25 18C24.25 18.0663 24.2237 18.1299 24.1768 18.1768C24.1299 18.2237 24.0663 18.25 24 18.25H21C20.9337 18.25 20.8701 18.2237 20.8232 18.1768C20.7763 18.1299 20.75 18.0663 20.75 18V2C20.75 1.9337 20.7763 1.87011 20.8232 1.82322C20.8701 1.77634 20.9337 1.75 21 1.75H24C24.0663 1.75 24.1299 1.77634 24.1768 1.82322C24.2237 1.87011 24.25 1.9337 24.25 2V18ZM28.25 15C28.25 15.0663 28.2237 15.1299 28.1768 15.1768C28.1299 15.2237 28.0663 15.25 28 15.25H25.75V4.75H28C28.0663 4.75 28.1299 4.77634 28.1768 4.82322C28.2237 4.87011 28.25 4.9337 28.25 5V15Z" fill="#F69134"/>
</svg>
