<svg width="24" height="23" viewBox="0 0 24 23" fill="none" xmlns="http://www.w3.org/2000/svg">
<path d="M6.44012 22.9999H15.5936C21.3683 22.9999 24 18.7323 24 14.7697C23.9565 13.8401 23.7249 12.9291 23.3196 12.0927C22.9142 11.2562 22.3435 10.5118 21.6425 9.90503C20.2005 8.52231 18.2973 7.73179 16.3062 7.68853C14.9763 7.76229 13.686 8.1708 12.5536 8.87664C11.4212 9.58247 10.4828 10.5631 9.82448 11.7286C9.37558 10.8289 8.72629 9.52418 8.20845 8.47524H9.90624C10.4088 8.44349 10.8861 8.24258 11.2614 7.90482C11.6368 7.56706 11.8885 7.11206 11.976 6.61296C12.2904 6.3484 12.5405 6.01503 12.7074 5.6383C12.8742 5.26157 12.9534 4.85144 12.9387 4.43923C12.9387 1.48444 9.65454 0.00139154 7.82929 0.00139154C5.33631 -0.0575106 4.61327 1.76442 3.96558 3.39432L3.93752 3.46694C3.53431 4.50943 5.30795e-05 13.7482 5.30795e-05 16.5537C-0.00682645 18.2674 0.655271 19.9153 1.84374 21.1424C2.44509 21.749 3.16258 22.2262 3.95269 22.5452C4.7428 22.8642 5.58905 23.0184 6.44012 22.9983V22.9999ZM5.4309 4.05999C6.1307 2.29696 6.51868 1.61596 7.76036 1.61596H7.81487C9.01005 1.61596 11.3347 2.61245 11.3347 4.44003C11.3563 4.624 11.3283 4.80958 11.2529 4.97903V4.97984C11.1515 4.84277 11.0276 4.72407 10.8866 4.62884C10.7662 4.54382 10.624 4.49562 10.477 4.49006H10.0513C9.6361 3.96317 8.35995 3.028 7.36677 3.20389L8.40645 4.53444H9.89182L10.1066 5.05003C10.3728 5.68747 10.2806 6.00457 10.1948 6.14336C10.1589 6.20167 10.1101 6.2509 10.0523 6.28727C9.9945 6.32364 9.92918 6.34618 9.86135 6.35314H4.82569L5.32108 7.00268C5.53832 7.28751 5.82689 7.5094 6.10986 7.67804C6.11146 7.79939 6.14023 7.91881 6.19403 8.02742L6.41607 8.47524V8.47685C6.88661 9.42493 7.97519 11.6213 8.56116 12.7928C8.54112 12.8219 8.52108 12.8518 8.50264 12.8816L6.18361 16.6747C6.07221 16.8571 6.03732 17.0765 6.08663 17.2847C6.13594 17.4929 6.2654 17.6729 6.44653 17.785C6.62767 17.8971 6.84563 17.9323 7.05249 17.8826C7.25934 17.833 7.43813 17.7027 7.54954 17.5204L9.6337 14.1097C9.70584 14.1266 9.77799 14.1363 9.85254 14.1371C9.9335 14.1339 10.0137 14.121 10.0914 14.0992L12.2437 17.668C12.3541 17.851 12.5321 17.9823 12.7386 18.0332C12.9452 18.084 13.1633 18.0502 13.3451 17.9391C13.5269 17.8281 13.6574 17.6489 13.7079 17.4409C13.7584 17.233 13.7248 17.0134 13.6145 16.8305L11.2385 12.8905C11.2043 12.8342 11.1669 12.7801 11.1263 12.7283C11.6229 11.7562 12.3608 10.9299 13.2682 10.3294C14.1757 9.72902 15.2219 9.37491 16.3054 9.30148C17.8926 9.34263 19.4076 9.97926 20.5539 11.0863C21.0894 11.5457 21.5283 12.1082 21.8448 12.7407C22.1612 13.3733 22.3489 14.0631 22.3968 14.7697C22.396 18.0634 20.2918 21.3861 15.5936 21.3861H6.44012C5.80214 21.4045 5.16708 21.2924 4.57338 21.0567C3.97967 20.8209 3.43966 20.4663 2.98602 20.0144C2.09418 19.093 1.5981 17.8555 1.60486 16.569C1.60486 14.4389 4.36878 6.81065 5.4309 4.05999Z" fill="#9747FF"/>
</svg>
