<svg width="26" height="26" viewBox="0 0 26 26" fill="none" xmlns="http://www.w3.org/2000/svg">
<path d="M8.50001 14.25C8.25278 14.25 8.0111 14.1767 7.80554 14.0393C7.59998 13.902 7.43977 13.7068 7.34516 13.4784C7.25055 13.2499 7.22579 12.9986 7.27402 12.7561C7.32226 12.5137 7.44131 12.2909 7.61612 12.1161C7.79094 11.9413 8.01367 11.8222 8.25614 11.774C8.49862 11.7258 8.74995 11.7505 8.97836 11.8452C9.20677 11.9398 9.40199 12.1 9.53934 12.3055C9.67669 12.5111 9.75001 12.7528 9.75001 13C9.75001 13.3315 9.61831 13.6495 9.38389 13.8839C9.14947 14.1183 8.83153 14.25 8.50001 14.25ZM17.5 11.75C17.2528 11.75 17.0111 11.8233 16.8055 11.9607C16.6 12.098 16.4398 12.2932 16.3452 12.5216C16.2505 12.7501 16.2258 13.0014 16.274 13.2439C16.3223 13.4863 16.4413 13.7091 16.6161 13.8839C16.7909 14.0587 17.0137 14.1777 17.2561 14.226C17.4986 14.2742 17.75 14.2495 17.9784 14.1549C18.2068 14.0602 18.402 13.9 18.5393 13.6945C18.6767 13.4889 18.75 13.2472 18.75 13C18.75 12.6685 18.6183 12.3505 18.3839 12.1161C18.1495 11.8817 17.8315 11.75 17.5 11.75ZM16.1 17.365C15.1694 17.9431 14.0956 18.2494 13 18.2494C11.9044 18.2494 10.8307 17.9431 9.90001 17.365C9.73159 17.2589 9.52794 17.2241 9.33384 17.2681C9.13974 17.3122 8.97109 17.4316 8.86501 17.6C8.75892 17.7684 8.72408 17.9721 8.76815 18.1662C8.81222 18.3603 8.93159 18.5289 9.10001 18.635C10.2702 19.3641 11.6213 19.7506 13 19.7506C14.3787 19.7506 15.7298 19.3641 16.9 18.635C16.9834 18.5825 17.0556 18.514 17.1126 18.4336C17.1695 18.3531 17.21 18.2623 17.2319 18.1662C17.2537 18.0701 17.2564 17.9706 17.2397 17.8735C17.2231 17.7763 17.1875 17.6834 17.135 17.6C17.0825 17.5166 17.014 17.4444 16.9336 17.3874C16.8532 17.3305 16.7623 17.29 16.6662 17.2681C16.5701 17.2463 16.4706 17.2436 16.3735 17.2603C16.2763 17.2769 16.1834 17.3125 16.1 17.365ZM25.75 13C25.75 15.5217 25.0022 17.9868 23.6012 20.0835C22.2003 22.1802 20.209 23.8144 17.8792 24.7795C15.5495 25.7445 12.9859 25.997 10.5126 25.505C8.03935 25.0131 5.76751 23.7987 3.98439 22.0156C2.20127 20.2325 0.986955 17.9607 0.494993 15.4874C0.00303191 13.0141 0.255524 10.4505 1.22054 8.12079C2.18556 5.79103 3.81976 3.79975 5.91648 2.39876C8.01321 0.997774 10.4783 0.25 13 0.25C16.3803 0.25397 19.621 1.59854 22.0112 3.98877C24.4015 6.379 25.746 9.61971 25.75 13ZM24.25 13C24.2465 10.0808 23.1098 7.27701 21.0794 5.17953C19.0491 3.08205 16.2838 1.85473 13.3663 1.75625C11.7875 3.90375 11.75 5.98125 11.75 6C11.75 6.33152 11.8817 6.64946 12.1161 6.88388C12.3505 7.1183 12.6685 7.25 13 7.25C13.3315 7.25 13.6495 7.1183 13.8839 6.88388C14.1183 6.64946 14.25 6.33152 14.25 6C14.25 5.80109 14.329 5.61032 14.4697 5.46967C14.6103 5.32902 14.8011 5.25 15 5.25C15.1989 5.25 15.3897 5.32902 15.5303 5.46967C15.671 5.61032 15.75 5.80109 15.75 6C15.75 6.72935 15.4603 7.42882 14.9445 7.94454C14.4288 8.46027 13.7294 8.75 13 8.75C12.2707 8.75 11.5712 8.46027 11.0555 7.94454C10.5397 7.42882 10.25 6.72935 10.25 6C10.25 5.90625 10.2688 4.0225 11.5175 1.8475C9.37462 2.13237 7.35918 3.0286 5.71233 4.42896C4.06549 5.82932 2.85697 7.6745 2.23138 9.74374C1.6058 11.813 1.58963 14.0186 2.18481 16.0968C2.78 18.175 3.96134 20.0377 5.58748 21.4621C7.21362 22.8864 9.2157 23.8121 11.3542 24.1284C13.4927 24.4446 15.677 24.138 17.6458 23.2453C19.6146 22.3526 21.2845 20.9116 22.4557 19.0946C23.627 17.2777 24.2499 15.1617 24.25 13Z" fill="#FFC700"/>
</svg>
