<svg width="24" height="29" viewBox="0 0 24 29" fill="none" xmlns="http://www.w3.org/2000/svg">
<path d="M11.9998 7.75C12.7415 7.75 13.4665 7.53007 14.0832 7.11801C14.6999 6.70596 15.1805 6.12029 15.4643 5.43506C15.7482 4.74984 15.8224 3.99584 15.6777 3.26841C15.533 2.54098 15.1759 1.8728 14.6514 1.34835C14.127 0.823904 13.4588 0.466751 12.7314 0.322057C12.0039 0.177362 11.2499 0.251625 10.5647 0.535453C9.8795 0.819282 9.29383 1.29993 8.88178 1.91661C8.46972 2.5333 8.24979 3.25832 8.24979 4C8.24979 4.99456 8.64488 5.94839 9.34814 6.65165C10.0514 7.35491 11.0052 7.75 11.9998 7.75ZM11.9998 1.75C12.4448 1.75 12.8798 1.88196 13.2498 2.12919C13.6198 2.37643 13.9082 2.72783 14.0785 3.13896C14.2488 3.5501 14.2934 4.0025 14.2066 4.43895C14.1197 4.87541 13.9054 5.27632 13.5908 5.59099C13.2761 5.90566 12.8752 6.11995 12.4387 6.20677C12.0023 6.29359 11.5499 6.24903 11.1388 6.07873C10.7276 5.90843 10.3762 5.62004 10.129 5.25003C9.88175 4.88002 9.74979 4.44501 9.74979 4C9.74979 3.40326 9.98684 2.83097 10.4088 2.40901C10.8308 1.98705 11.4031 1.75 11.9998 1.75ZM23.1098 15.9275L17.4585 9.52C17.1067 9.12091 16.6739 8.80126 16.189 8.58229C15.7041 8.36332 15.1781 8.25005 14.646 8.25H9.35354C8.82157 8.24989 8.29567 8.36297 7.81075 8.58172C7.32584 8.80047 6.89302 9.11988 6.54104 9.51875L0.889787 15.9275C0.679836 16.1355 0.512906 16.3828 0.398528 16.6553C0.284149 16.9278 0.224562 17.2201 0.22317 17.5156C0.220357 18.1125 0.45475 18.686 0.874787 19.11C1.29482 19.534 1.8661 19.7738 2.46293 19.7766C3.05976 19.7794 3.63327 19.545 4.05729 19.125L6.69604 17.0088L4.42979 25.615C4.19154 26.1564 4.17608 26.7698 4.38673 27.3226C4.59739 27.8753 5.01722 28.3228 5.55537 28.5683C6.09352 28.8138 6.7067 28.8375 7.2622 28.6343C7.8177 28.4311 8.27083 28.0173 8.52354 27.4825L11.9998 21.5L15.476 27.4888C15.7287 28.0236 16.1819 28.4373 16.7374 28.6406C17.2929 28.8438 17.906 28.8201 18.4442 28.5746C18.9824 28.3291 19.4022 27.8815 19.6128 27.3288C19.8235 26.7761 19.808 26.1627 19.5698 25.6213L17.3035 17.0125L19.9423 19.125C20.3689 19.5305 20.9373 19.7527 21.5258 19.744C22.1143 19.7353 22.676 19.4963 23.0904 19.0784C23.5047 18.6604 23.7388 18.0967 23.7425 17.5081C23.7461 16.9196 23.519 16.3531 23.1098 15.93V15.9275ZM22.031 18.03C21.9614 18.0997 21.8787 18.1551 21.7876 18.1928C21.6966 18.2305 21.599 18.25 21.5004 18.25C21.4018 18.25 21.3043 18.2305 21.2132 18.1928C21.1222 18.1551 21.0394 18.0997 20.9698 18.03C20.9509 18.0101 20.9304 17.9917 20.9085 17.975L16.4698 14.415C16.3468 14.3162 16.1957 14.2588 16.0382 14.2508C15.8806 14.2429 15.7246 14.2848 15.5922 14.3706C15.4598 14.4565 15.3579 14.5818 15.3009 14.729C15.2439 14.8761 15.2348 15.0374 15.2748 15.19L18.1335 26.0563C18.146 26.0989 18.1615 26.1407 18.1798 26.1813C18.2638 26.3616 18.2728 26.5679 18.2047 26.7549C18.1366 26.9418 17.997 27.0941 17.8167 27.1781C17.6363 27.2622 17.43 27.2711 17.243 27.203C17.0561 27.1349 16.9038 26.9953 16.8198 26.815C16.8106 26.7944 16.8002 26.7743 16.7885 26.755L12.6485 19.625C12.5826 19.5113 12.488 19.417 12.3741 19.3514C12.2603 19.2858 12.1312 19.2513 11.9998 19.2513C11.8684 19.2513 11.7393 19.2858 11.6255 19.3514C11.5116 19.417 11.417 19.5113 11.351 19.625L7.21104 26.7563C7.19939 26.7756 7.18895 26.7956 7.17979 26.8163C7.09575 26.9966 6.94351 27.1362 6.75656 27.2043C6.5696 27.2724 6.36326 27.2634 6.18291 27.1794C6.00256 27.0953 5.86299 26.9431 5.79489 26.7561C5.72679 26.5692 5.73575 26.3629 5.81979 26.1825C5.83809 26.142 5.85354 26.1002 5.86604 26.0575L8.72479 15.1913C8.76418 15.0392 8.75484 14.8786 8.6981 14.7322C8.64136 14.5858 8.54008 14.4608 8.40854 14.375C8.28708 14.295 8.1452 14.2516 7.99979 14.25C7.8289 14.2499 7.66308 14.3081 7.52979 14.415L3.09104 17.975C3.0692 17.9917 3.04871 18.0101 3.02979 18.03C2.88906 18.1707 2.69818 18.2498 2.49916 18.2498C2.30014 18.2498 2.10927 18.1707 1.96854 18.03C1.82781 17.8893 1.74875 17.6984 1.74875 17.4994C1.74875 17.3004 1.82781 17.1095 1.96854 16.9688L2.00104 16.935L7.66604 10.5113C7.87723 10.2719 8.13692 10.0803 8.42787 9.94903C8.71881 9.81778 9.03436 9.74994 9.35354 9.75H14.646C14.9652 9.74994 15.2808 9.81778 15.5717 9.94903C15.8627 10.0803 16.1223 10.2719 16.3335 10.5113L21.9998 16.935L22.0323 16.9688C22.1019 17.0385 22.1572 17.1213 22.1948 17.2124C22.2324 17.3035 22.2517 17.4011 22.2516 17.4996C22.2515 17.5982 22.232 17.6958 22.1941 17.7868C22.1563 17.8778 22.1009 17.9604 22.031 18.03Z" fill="#F21E84"/>
</svg>
