<svg width="26" height="25" viewBox="0 0 26 25" fill="none" xmlns="http://www.w3.org/2000/svg">
<path d="M25.75 9C25.75 9.19891 25.6709 9.38968 25.5303 9.53033C25.3896 9.67098 25.1989 9.75 25 9.75H22.75V12C22.75 12.1989 22.6709 12.3897 22.5303 12.5303C22.3896 12.671 22.1989 12.75 22 12.75C21.801 12.75 21.6103 12.671 21.4696 12.5303C21.329 12.3897 21.25 12.1989 21.25 12V9.75H19C18.801 9.75 18.6103 9.67098 18.4696 9.53033C18.329 9.38968 18.25 9.19891 18.25 9C18.25 8.80109 18.329 8.61032 18.4696 8.46967C18.6103 8.32902 18.801 8.25 19 8.25H21.25V6C21.25 5.80109 21.329 5.61032 21.4696 5.46967C21.6103 5.32902 21.801 5.25 22 5.25C22.1989 5.25 22.3896 5.32902 22.5303 5.46967C22.6709 5.61032 22.75 5.80109 22.75 6V8.25H25C25.1989 8.25 25.3896 8.32902 25.5303 8.46967C25.6709 8.61032 25.75 8.80109 25.75 9ZM14 3.75H15.25V5C15.25 5.19891 15.329 5.38968 15.4696 5.53033C15.6103 5.67098 15.801 5.75 16 5.75C16.1989 5.75 16.3896 5.67098 16.5303 5.53033C16.6709 5.38968 16.75 5.19891 16.75 5V3.75H18C18.1989 3.75 18.3896 3.67098 18.5303 3.53033C18.6709 3.38968 18.75 3.19891 18.75 3C18.75 2.80109 18.6709 2.61032 18.5303 2.46967C18.3896 2.32902 18.1989 2.25 18 2.25H16.75V1C16.75 0.801088 16.6709 0.610322 16.5303 0.46967C16.3896 0.329018 16.1989 0.25 16 0.25C15.801 0.25 15.6103 0.329018 15.4696 0.46967C15.329 0.610322 15.25 0.801088 15.25 1V2.25H14C13.801 2.25 13.6103 2.32902 13.4696 2.46967C13.329 2.61032 13.25 2.80109 13.25 3C13.25 3.19891 13.329 3.38968 13.4696 3.53033C13.6103 3.67098 13.801 3.75 14 3.75ZM22.9062 16.285C22.9935 16.3867 23.0519 16.5099 23.0754 16.6418C23.0989 16.7736 23.0867 16.9094 23.04 17.035C22.3612 18.8886 21.2265 20.5413 19.7405 21.8406C18.2545 23.1399 16.4651 24.0439 14.5375 24.4691C12.6099 24.8943 10.6062 24.827 8.71151 24.2735C6.81677 23.72 5.09201 22.6981 3.69647 21.3021C2.30092 19.9061 1.27955 18.181 0.726669 16.286C0.173783 14.3911 0.107194 12.3875 0.53305 10.46C0.958905 8.53256 1.86348 6.74346 3.16326 5.25787C4.46305 3.77228 6.11615 2.63809 7.96995 1.96C8.09478 1.91458 8.22942 1.90313 8.36012 1.92681C8.49083 1.9505 8.61289 2.00847 8.71384 2.0948C8.81479 2.18112 8.891 2.29272 8.93469 2.41816C8.97837 2.5436 8.98795 2.67839 8.96245 2.80875C8.64104 4.44001 8.68473 6.1222 9.09041 7.73457C9.49608 9.34695 10.2537 10.8495 11.3088 12.1344C12.3639 13.4194 13.6904 14.4548 15.1931 15.1663C16.6958 15.8779 18.3373 16.248 20 16.25C20.7355 16.2503 21.4694 16.1791 22.1912 16.0375C22.3216 16.0117 22.4566 16.021 22.5822 16.0645C22.7078 16.108 22.8197 16.1841 22.9062 16.285ZM21.11 17.7025C20.7416 17.7342 20.3716 17.75 20 17.75C16.6197 17.746 13.379 16.4015 10.9887 14.0112C8.5985 11.621 7.25392 8.38029 7.24995 5C7.24995 4.62917 7.26579 4.25917 7.29745 3.89C5.86513 4.63052 4.62771 5.69851 3.68575 7.00719C2.74379 8.31587 2.12387 9.82831 1.87634 11.4216C1.62882 13.0149 1.76068 14.6442 2.26122 16.177C2.76176 17.7097 3.61685 19.1028 4.75701 20.2429C5.89716 21.3831 7.29023 22.2382 8.823 22.7387C10.3558 23.2393 11.985 23.3711 13.5783 23.1236C15.1716 22.8761 16.6841 22.2562 17.9928 21.3142C19.3014 20.3722 20.3694 19.1348 21.11 17.7025Z" fill="#22C1C1"/>
</svg>
