<svg width="60" height="60" viewBox="0 0 60 60" fill="none" xmlns="http://www.w3.org/2000/svg">
<path d="M30.0006 0.62691C29.4573 0.62691 28.906 0.631035 28.3665 0.66366C27.1581 0.73016 25.9699 0.89616 24.8046 1.10429C24.6756 1.12729 24.5476 1.15304 24.4191 1.17779C24.3089 1.19904 24.1984 1.21029 24.0886 1.23279C24.0274 1.24341 23.9661 1.25654 23.9051 1.26954C23.8441 1.28254 23.7826 1.29291 23.7214 1.30629C23.0795 1.44616 22.4374 1.60254 21.812 1.78366C21.7507 1.80091 21.6894 1.82054 21.6283 1.83866C21.5969 1.84804 21.568 1.86554 21.5366 1.87541C21.446 1.90254 21.3514 1.92079 21.2611 1.94879C21.0889 2.00716 20.9196 2.07504 20.747 2.13241C20.3836 2.25304 20.0208 2.36529 19.6637 2.49966C19.6196 2.51279 19.5791 2.53929 19.5352 2.55466C18.9951 2.76079 18.4622 2.99741 17.938 3.23404C17.4047 3.47454 16.8746 3.71591 16.359 3.98679C15.8426 4.25923 15.3344 4.54698 14.8351 4.84966C14.8116 4.86379 14.7855 4.87229 14.7612 4.88641C14.2877 5.17299 13.8224 5.47298 13.3659 5.78604C12.6084 6.30729 11.8846 6.86879 11.1809 7.45679C10.9137 7.67853 10.6506 7.90502 10.3915 8.13616C10.3438 8.17929 10.2925 8.22116 10.2446 8.26466C9.96788 8.51628 9.70363 8.77379 9.43675 9.03591C9.39988 9.07204 9.36375 9.10954 9.32662 9.14591C8.96187 9.50741 8.607 9.86754 8.26163 10.2475C8.05313 10.4765 7.856 10.7098 7.65575 10.9453C7.45588 11.1794 7.26075 11.4209 7.06825 11.6613C6.67931 12.1451 6.30579 12.6411 5.94825 13.1485C5.71912 13.4749 5.50325 13.8039 5.28737 14.1399C5.26575 14.1727 5.23513 14.1987 5.2135 14.2318C5.17017 14.2988 5.12729 14.3661 5.08488 14.4337C5.06862 14.4594 5.04612 14.4812 5.02987 14.5072C4.97775 14.5909 4.93337 14.6794 4.88312 14.7642C4.68883 15.092 4.49907 15.4226 4.31388 15.7557C4.26888 15.837 4.21162 15.9124 4.167 15.9944V16.0125C3.94375 16.4242 3.72825 16.8379 3.5245 17.261C3.32237 17.681 3.13775 18.099 2.95538 18.5279C2.904 18.6484 2.858 18.7738 2.80837 18.8952C2.69762 19.1639 2.58113 19.4304 2.47788 19.703C2.42088 19.8552 2.36725 20.0087 2.31262 20.162C2.26898 20.2841 2.22615 20.4065 2.18412 20.5292H2.16587C2.11075 20.6915 2.07138 20.8614 2.019 21.0249C2.00375 21.0729 1.99737 21.1237 1.98275 21.1718C1.97275 21.2034 1.95562 21.2319 1.94625 21.2637C1.88287 21.4769 1.82438 21.6914 1.76262 21.9062V21.9245C1.75325 21.95 1.73325 21.972 1.72625 21.998C1.70387 22.0762 1.69275 22.158 1.671 22.2368C1.60287 22.4862 1.53088 22.7374 1.46913 22.9894C1.45088 23.0632 1.43163 23.1362 1.41388 23.2098C1.391 23.3065 1.38037 23.4065 1.35862 23.5035C1.27105 23.8935 1.19149 24.2853 1.12 24.6785C1.1095 24.7344 1.093 24.788 1.083 24.8439C1.07662 24.8685 1.06887 24.8927 1.06475 24.9173C1.00837 25.2415 0.96375 25.5625 0.917875 25.8904C0.917875 25.9092 0.902 25.9263 0.89975 25.9457C0.882625 26.0697 0.860375 26.1882 0.8445 26.3128H0.862625C0.810949 26.728 0.768106 27.1443 0.734125 27.5613C0.727875 27.6042 0.7195 27.6468 0.716 27.6898H0.69775C0.67775 27.9445 0.6725 28.2042 0.6615 28.461C0.6615 28.4734 0.662 28.4857 0.6615 28.4974C0.661125 28.5037 0.661625 28.5098 0.6615 28.5157C0.63675 29.0103 0.625 29.5019 0.625 30.0028V30.021C0.62525 30.5218 0.63675 31.0135 0.661375 31.5082C0.661625 31.5144 0.661125 31.5205 0.661375 31.5264C0.679 31.8949 0.70375 32.2633 0.73475 32.6279C0.74475 32.7442 0.760625 32.86 0.77125 32.9767V33.0502C0.78175 33.1608 0.79525 33.2714 0.8075 33.3808C0.832875 33.6033 0.868625 33.8217 0.899375 34.0417C0.92475 34.2257 0.944125 34.4097 0.972875 34.5924C0.979125 34.6289 0.98525 34.666 0.991 34.7027C1.05975 35.131 1.12437 35.5475 1.21137 35.9695C1.30575 36.4245 1.40825 36.8813 1.5235 37.3283C1.52975 37.3354 1.53813 37.3394 1.54163 37.3464V37.3647C1.6495 37.7798 1.76537 38.1867 1.89037 38.5948C1.90575 38.6448 1.92988 38.6917 1.94575 38.7417C2.06275 39.1117 2.1835 39.4789 2.31287 39.8433C2.32875 39.8874 2.35225 39.9279 2.36812 39.9718C2.4075 40.0809 2.43763 40.1937 2.47813 40.3023C2.54986 40.4927 2.62332 40.6825 2.6985 40.8715C2.77425 41.0615 2.85788 41.2527 2.93725 41.4405C3.12237 41.8798 3.31826 42.3145 3.52475 42.7442C3.70238 43.1142 3.88287 43.4854 4.07562 43.8457C4.10538 43.9015 4.13688 43.9557 4.16738 44.011V44.0292C4.33463 44.3372 4.504 44.6275 4.6815 44.9288C4.74538 45.0363 4.81862 45.1355 4.8835 45.2409C5.04187 45.498 5.19488 45.7572 5.36088 46.0122C5.39687 46.0673 5.43462 46.1222 5.47087 46.1773C5.61962 46.4023 5.77537 46.6177 5.93 46.8383C5.9975 46.9355 6.063 47.0355 6.132 47.132C6.2395 47.2818 6.352 47.425 6.46237 47.5727C6.62237 47.7874 6.77425 48.006 6.93987 48.2153C6.95862 48.2388 6.97675 48.2647 6.99475 48.2888C7.08388 48.401 7.17938 48.5083 7.27013 48.6192C7.31613 48.6762 7.37012 48.7279 7.417 48.7844C7.54762 48.9417 7.66825 49.1073 7.80262 49.2619C7.95087 49.4327 8.11075 49.591 8.2615 49.7575C8.40388 49.9147 8.53688 50.0803 8.68388 50.2349C8.69825 50.2508 8.7235 50.2562 8.73888 50.2719C8.901 50.4419 9.0685 50.6014 9.23462 50.7675C9.3465 50.8819 9.44963 51.0049 9.56513 51.1163C9.63888 51.1888 9.71012 51.2654 9.7855 51.3367C9.93325 51.4768 10.0913 51.606 10.2443 51.7407C10.3746 51.8552 10.4998 51.9753 10.63 52.0894C10.6389 52.0949 10.6416 52.1019 10.648 52.1077C10.7566 52.2028 10.8685 52.2894 10.9785 52.383C11.1431 52.523 11.3064 52.6688 11.4742 52.8053C11.7426 53.0244 12.0244 53.238 12.3004 53.4479C12.3561 53.4904 12.4097 53.5348 12.4655 53.5765C12.5006 53.6024 12.5404 53.624 12.5759 53.6499C12.9051 53.893 13.2275 54.1364 13.5671 54.3659C13.911 54.6 14.2599 54.8266 14.6138 55.0453C14.6328 55.057 14.6498 55.0705 14.6688 55.0817L14.7605 55.1369C14.9916 55.2774 15.223 55.4067 15.4583 55.5409C15.6341 55.6412 15.813 55.7369 15.9907 55.8347C16.1011 55.8954 16.2095 55.9595 16.3213 56.0183C16.6126 56.172 16.905 56.3148 17.2025 56.4589C17.2195 56.467 17.2402 56.4689 17.2575 56.4772C17.4524 56.57 17.6481 56.663 17.845 56.7525C17.9869 56.8172 18.1244 56.892 18.2671 56.9545C18.363 56.9963 18.4634 57.0269 18.5609 57.0645C18.6484 57.0982 18.7318 57.1392 18.818 57.1749C19.1095 57.2949 19.403 57.4127 19.6994 57.5237C19.766 57.5489 19.8343 57.5724 19.9013 57.5972C19.9193 57.6034 19.9382 57.6088 19.9562 57.6153C19.9688 57.6215 19.9805 57.6288 19.9931 57.6335C20.2966 57.7435 20.6031 57.8455 20.9111 57.9455C20.9959 57.973 21.0833 57.992 21.1682 58.019L21.407 58.0924C21.5604 58.1399 21.711 58.1949 21.8659 58.2393C22.1278 58.3147 22.3906 58.3915 22.6554 58.4597C23.0437 58.5599 23.4361 58.6507 23.8304 58.735C23.8854 58.7468 23.9404 58.7603 23.9956 58.7715C24.0631 58.7857 24.1304 58.795 24.1976 58.8078C24.6372 58.8962 25.0732 58.9783 25.5196 59.0465C25.92 59.1079 26.3259 59.1485 26.7314 59.1934C26.7746 59.1997 26.8169 59.2075 26.8598 59.2117C26.9694 59.2233 27.0805 59.2379 27.1904 59.2479C27.2641 59.2553 27.3376 59.2604 27.4107 59.2662C27.6914 59.2909 27.9722 59.3049 28.2551 59.3214C28.3345 59.3268 28.4145 59.3355 28.4939 59.3397C28.6405 59.3469 28.7875 59.3525 28.9346 59.3578C29.29 59.3708 29.6409 59.376 29.9995 59.376C30.5065 59.376 31.0043 59.3648 31.505 59.339C31.9999 59.3143 32.4856 59.278 32.9738 59.2289H33.01C33.3515 59.1937 33.7 59.1469 34.038 59.1004C34.2772 59.0667 34.516 59.03 34.7542 58.9902C34.8406 58.9762 34.9252 58.9685 35.0111 58.9539C35.1225 58.9344 35.2306 58.9192 35.3416 58.8985C35.7016 58.8323 36.0695 58.7578 36.4249 58.6783C36.4986 58.6618 36.572 58.64 36.6452 58.623C36.8494 58.576 37.0498 58.525 37.2511 58.4762C37.2944 58.4657 37.3368 58.4503 37.3796 58.4398C37.44 58.4244 37.5031 58.4192 37.5633 58.4034C37.6798 58.3722 37.7961 58.344 37.912 58.3115C38.0164 58.2828 38.1201 58.25 38.2241 58.2198C38.3975 58.1692 38.5662 58.1074 38.7383 58.0545C38.8659 58.0152 38.997 57.9858 39.1237 57.9443C39.1364 57.9389 39.1471 57.9303 39.1608 57.9262C39.4736 57.8234 39.7886 57.7087 40.097 57.5957L40.3908 57.4854C40.502 57.4432 40.6109 57.4003 40.7212 57.3569C41.111 57.2042 41.4966 57.03 41.878 56.8612C41.9384 56.8349 42.0016 56.8149 42.0616 56.7878L42.2269 56.7144C42.7169 56.4892 43.2005 56.2504 43.6772 55.9984C44.7422 55.4372 45.7609 54.8088 46.7435 54.1255C47.0221 53.9318 47.298 53.741 47.5698 53.538L47.79 53.3728C47.8413 53.3334 47.8854 53.284 47.9369 53.2443C48.2262 53.0205 48.5191 52.799 48.7998 52.5649C49.4283 52.0396 50.0347 51.4883 50.6175 50.9125C50.649 50.882 50.6788 50.8515 50.7093 50.8207C50.7273 50.8025 50.7463 50.7844 50.7643 50.7655C51.0646 50.4659 51.3584 50.1599 51.6455 49.8475C51.6753 49.8158 51.7085 49.7878 51.7373 49.7557C52.3113 49.1243 52.8535 48.4525 53.3713 47.7728C53.6427 47.4178 53.9059 47.0566 54.1608 46.6895C54.4536 46.2664 54.7347 45.843 55.0054 45.4043C55.0405 45.3484 55.081 45.2949 55.1155 45.239C55.2149 45.0755 55.313 44.9089 55.4092 44.7433C55.5424 44.5237 55.672 44.3075 55.7949 44.0824C55.8056 44.063 55.8211 44.0465 55.8319 44.0272V44.0089C56.0644 43.5808 56.2811 43.1462 56.4927 42.7054C56.6877 42.298 56.885 41.8742 57.0619 41.4569V41.4387C57.0853 41.3834 57.1124 41.3287 57.1357 41.2734C57.2979 40.8854 57.451 40.4936 57.5949 40.0984C57.6435 39.9654 57.6769 39.8284 57.7233 39.6945C57.8126 39.4387 57.8984 39.1816 57.9804 38.9233C58.1079 38.5227 58.2369 38.1195 58.3475 37.7117C58.4572 37.3073 58.5488 36.8924 58.6413 36.4814C58.7496 36.0007 58.8505 35.5204 58.935 35.0309V35.0128C59.0035 34.6155 59.0664 34.2219 59.1188 33.8194C59.1313 33.7214 59.1439 33.6238 59.1548 33.5257C59.2079 33.0779 59.2501 32.6207 59.2831 32.1669C59.3336 31.4748 59.3732 30.7785 59.375 30.0739V30.0005C59.375 28.1414 59.1911 26.329 58.8609 24.5659C58.8312 24.4073 58.8015 24.246 58.7691 24.0884C58.7366 23.9287 58.6944 23.7699 58.6589 23.6112C58.2514 21.7762 57.6845 19.993 56.9514 18.305C56.8892 18.1617 56.8151 18.0243 56.7495 17.8828C56.6561 17.6815 56.5697 17.4768 56.474 17.2769C56.456 17.2398 56.4362 17.204 56.419 17.1667V17.1483C56.2318 16.762 56.0345 16.3869 55.8315 16.01V15.9917C55.6354 15.6307 55.4179 15.2784 55.2072 14.9267C55.1775 14.8777 55.1451 14.8288 55.1155 14.7799C55.1065 14.7762 55.1245 14.7643 55.1155 14.7615C54.926 14.4497 54.7286 14.1478 54.528 13.8435C54.0244 13.0782 53.4852 12.3369 52.9123 11.622C52.3695 10.9462 51.786 10.3007 51.1865 9.67579C51.1685 9.65716 51.1495 9.63929 51.1315 9.62079L51.0946 9.58403C50.795 9.27441 50.4895 8.98054 50.1766 8.68429C49.2622 7.81879 48.2952 7.00416 47.2756 6.26079C46.6179 5.78116 45.9536 5.32691 45.2561 4.90204C45.2471 4.89804 45.2453 4.88804 45.2381 4.88379C44.6896 4.55054 44.1203 4.24504 43.549 3.94754C43.1196 3.72379 42.6869 3.50754 42.2455 3.30479C41.8062 3.10316 41.3555 2.91604 40.9051 2.73566C40.8926 2.73029 40.8809 2.72229 40.8683 2.71729C39.5139 2.17729 38.1086 1.73091 36.6637 1.39541C36.615 1.38404 36.5661 1.37004 36.5169 1.35866C36.3409 1.31866 36.1616 1.28529 35.9844 1.24854C35.7281 1.19563 35.471 1.14667 35.2132 1.10166C34.508 0.97516 33.8051 0.86466 33.0835 0.789535C32.6069 0.739785 32.116 0.687535 31.633 0.66091C31.597 0.65916 31.5591 0.662785 31.523 0.66091H31.5049C31.0034 0.635948 30.5014 0.623736 29.9994 0.624285L30.0006 0.62691ZM28.0544 3.34429C28.8475 3.44304 29.6406 3.55054 30.4412 3.65641C33.1999 4.02091 35.8181 4.35454 38.2811 4.57441C40.8356 5.40566 43.2161 6.62103 45.368 8.13628C43.3377 8.26954 41.1765 8.32166 38.887 8.22803C35.8321 8.09929 32.6558 7.74641 29.4865 7.32841C27.2465 7.03291 25.133 6.71866 23.0971 6.46541C21.4919 6.26527 19.8818 6.10613 18.2684 5.98816C21.2609 4.52341 24.5621 3.59541 28.0544 3.34429ZM17.5156 9.53166C19.5702 9.55566 21.7001 9.68979 23.8682 9.89879C26.0364 10.1079 28.224 10.3953 30.4412 10.6883C33.5783 11.1029 36.5406 11.4884 39.2909 11.6982C42.3317 11.9342 45.1924 11.9688 47.7734 11.9C48.4128 11.883 49.0209 11.8572 49.6094 11.8267C50.3639 12.6402 51.0527 13.5128 51.7024 14.4154C50.6177 14.6094 49.4781 14.7892 48.2139 14.9295C45.434 15.2383 42.2719 15.3985 38.887 15.26C35.8321 15.1313 32.6558 14.7784 29.4865 14.3603C27.2465 14.0649 25.133 13.7505 23.0971 13.4974C21.0612 13.2443 19.1089 13.0558 17.277 12.9467C15.9779 12.8658 14.7196 12.8269 13.5131 12.8182C12.3066 12.8094 11.1487 12.8307 10.0614 12.8732C9.84125 12.8822 9.64913 12.8992 9.43725 12.9099C10.394 11.7607 11.461 10.6894 12.5951 9.71529C14.2316 9.5783 15.8736 9.51699 17.5158 9.53154L17.5156 9.53166ZM17.5156 16.5635C19.5702 16.5875 21.7001 16.7218 23.8682 16.9308C26.0364 17.1398 28.224 17.4273 30.4412 17.7203C33.5783 18.1349 36.5406 18.5203 39.2909 18.73C42.3317 18.9662 45.1924 19.0007 47.7734 18.932C50.188 18.8678 52.326 18.7248 54.1626 18.5648C54.5018 19.2798 54.8232 20.0017 55.0989 20.7498C53.2049 21.2273 50.8944 21.682 48.2139 21.9798C45.434 22.2884 42.2719 22.4305 38.887 22.2919C38.378 22.2705 37.8607 22.251 37.3446 22.2185C35.4242 20.4052 32.8503 19.2809 30.0006 19.2809C28.0374 19.2809 26.2037 19.8102 24.6211 20.7314C24.1136 20.6606 23.6056 20.5933 23.0971 20.5294C21.0611 20.2763 19.1089 20.0878 17.277 19.9787C15.9779 19.8978 14.7196 19.8589 13.5131 19.85C12.3066 19.8412 11.1487 19.8625 10.0614 19.905C8.19075 19.9785 6.55487 20.1194 5.10413 20.254C5.44975 19.3719 5.84538 18.517 6.27913 17.6835C7.28487 17.4595 8.3525 17.2464 9.54737 17.0777C11.8895 16.7469 14.5953 16.5364 17.5158 16.5635H17.5156ZM17.5156 23.5955C18.7434 23.6097 20.0056 23.6738 21.2794 23.7608C20.5462 24.7842 20.0017 25.946 19.6637 27.1942C18.8693 27.1189 18.0736 27.0577 17.277 27.0104C14.6788 26.8488 12.2361 26.8517 10.0614 26.9372C7.88662 27.0227 5.96763 27.2029 4.36975 27.3594C4.00787 27.3947 3.7215 27.4184 3.39663 27.4512C3.46413 26.7369 3.56775 26.0365 3.69037 25.3398C5.2745 24.8845 7.23875 24.4355 9.54737 24.1097C11.8895 23.7789 14.5953 23.5683 17.5158 23.5955H17.5156ZM56.3291 25.3948C56.4429 26.0489 56.521 26.7083 56.5861 27.3778C56.1911 27.4935 55.7728 27.6099 55.3194 27.7265C53.388 28.2234 50.9939 28.7029 48.2139 29.0118C45.9356 29.2648 43.3906 29.4083 40.6864 29.3789C40.6133 28.1178 40.3314 26.9243 39.86 25.8172C42.6856 26.0143 45.3566 26.0282 47.7733 25.964C50.3541 25.8953 52.6526 25.7328 54.5666 25.56C55.2449 25.4988 55.7675 25.4474 56.3291 25.3948ZM17.5158 30.6275C18.1066 30.6347 18.7114 30.6745 19.3149 30.7009C19.396 31.9647 19.6965 33.1559 20.1779 34.2628C19.1841 34.1678 18.2129 34.0982 17.277 34.0425C14.6788 33.8809 12.2361 33.8837 10.0614 33.969C7.88662 34.0544 5.96763 34.2165 4.36975 34.3729C4.071 34.4023 3.885 34.4252 3.65363 34.4464C3.54323 33.7889 3.4575 33.1274 3.39663 32.4634C3.47413 32.4394 3.53638 32.4135 3.617 32.39C5.21288 31.9279 7.205 31.4723 9.54737 31.1415C11.8897 30.8108 14.5953 30.6003 17.5158 30.6275ZM56.6229 32.39C56.5607 33.0968 56.4639 33.7933 56.3475 34.4832C56.0187 34.5798 55.6859 34.6827 55.3194 34.7769C53.388 35.2737 50.9939 35.7349 48.2139 36.0438C45.4339 36.3527 42.2719 36.4945 38.887 36.3558C38.8022 36.3495 38.7161 36.3418 38.63 36.3377C39.3944 35.2977 39.9866 34.1277 40.3375 32.8492C42.9849 33.021 45.4939 33.075 47.7733 33.0144C50.3541 32.9458 52.6526 32.7649 54.5666 32.5922C55.3704 32.5197 55.9766 32.453 56.6229 32.3902V32.39ZM17.5158 37.6594C19.2309 37.6794 21.0045 37.7813 22.8034 37.9349C24.7075 39.6654 27.2248 40.7257 30.0006 40.7257C31.86 40.7257 33.5986 40.2548 35.1231 39.422C36.5582 39.5938 37.952 39.7422 39.2909 39.8443C42.3317 40.0802 45.1924 40.0968 47.7734 40.0279C50.3544 39.959 52.6526 39.7965 54.5666 39.624L54.9704 39.587C54.6309 40.4718 54.2236 41.3208 53.7954 42.1574C52.1729 42.5174 50.3115 42.8424 48.2139 43.0755C45.434 43.384 42.2719 43.526 38.887 43.3875C35.8321 43.2589 32.6558 42.9058 29.4865 42.4879C27.2465 42.1924 25.133 41.8782 23.0971 41.625C21.0612 41.3719 19.1089 41.2015 17.277 41.0925C15.9779 41.0117 14.7196 40.9544 13.5131 40.9457C12.3066 40.9369 11.1487 40.9763 10.0614 41.0192C8.46712 41.0817 7.07037 41.1842 5.78337 41.2945C5.44625 40.5725 5.11987 39.8467 4.84713 39.0913C6.20025 38.7448 7.7655 38.4249 9.54737 38.1733C11.8895 37.8425 14.5953 37.632 17.5158 37.6592V37.6594ZM17.5158 44.6914C19.5703 44.7149 21.7001 44.8495 23.8682 45.0587C26.0364 45.2677 28.224 45.5733 30.4412 45.8665C33.5783 46.281 36.5406 46.6484 39.2909 46.8578C42.3317 47.094 45.1924 47.1285 47.7734 47.0599C48.7471 47.0338 49.7203 46.9909 50.6925 46.9313C49.7276 48.1081 48.6651 49.2014 47.5163 50.1995C44.9062 50.4548 41.9967 50.547 38.887 50.4198C35.8321 50.291 32.6558 49.9563 29.4865 49.5385C27.2465 49.2429 25.133 48.9103 23.0971 48.6573C21.0611 48.4039 19.1089 48.2155 17.277 48.1064C15.9779 48.0257 14.7196 48.0049 13.5131 47.9963C12.3788 47.9882 11.2935 47.9963 10.2634 48.0327C9.51125 47.2099 8.81588 46.3377 8.17037 45.4255C8.61525 45.349 9.0695 45.2727 9.54737 45.2053C11.8896 44.8744 14.5953 44.6638 17.5158 44.6912V44.6914ZM15.6796 51.7418C16.2774 51.7259 16.8961 51.7364 17.5158 51.7418C19.5703 51.7653 21.7001 51.8998 23.8682 52.1089C26.0364 52.3177 28.224 52.587 30.4412 52.88C33.5783 53.2948 36.5406 53.6803 39.2909 53.8899C40.1071 53.9533 40.8969 53.9954 41.6776 54.0368C38.3755 55.6443 34.7001 56.6017 30.8085 56.7173C30.3669 56.6622 29.9282 56.6103 29.4865 56.552C27.2465 56.2567 25.133 55.9605 23.0971 55.7075C22.8352 55.6747 22.5842 55.6462 22.326 55.6157C19.496 54.7688 16.8735 53.4524 14.5229 51.7784C14.905 51.7597 15.285 51.7519 15.6796 51.742V51.7418Z" fill="#B3D3F1"/>
</svg>
